<svg width="25" height="25" viewBox="0 0 25 25" fill="none" xmlns="http://www.w3.org/2000/svg">
<path d="M20.376 12.8127V11.1057C20.376 6.66369 16.897 2.94469 12.621 2.81569C10.417 2.76469 8.36998 3.55169 6.80498 5.07169C5.23798 6.59169 4.37598 8.63069 4.37598 10.8127V12.8127C3.27298 12.8127 2.37598 13.7097 2.37598 14.8127V18.8127C2.37598 19.9157 3.27298 20.8127 4.37598 20.8127H6.37598V10.8127C6.37598 9.17569 7.02198 7.64669 8.19698 6.50669C9.37098 5.36669 10.932 4.76769 12.56 4.81569C15.768 4.91169 18.376 7.73369 18.376 11.1057V20.8127H20.376C21.479 20.8127 22.376 19.9157 22.376 18.8127V14.8127C22.376 13.7097 21.479 12.8127 20.376 12.8127Z" fill="white"/>
<path d="M7.37598 12.8127H9.37598V20.8127H7.37598V12.8127ZM15.376 12.8127H17.376V20.8127H15.376V12.8127Z" fill="white"/>
</svg>
